<?xml version="1.0" encoding="UTF-8" standalone="no"?>
<!-- Created with Inkscape (http://www.inkscape.org/) -->

<svg
   width="105"
   height="105.22"
   version="1.0"
   id="svg26"
   xmlns="http://www.w3.org/2000/svg"
   xmlns:svg="http://www.w3.org/2000/svg">
  <defs
     id="defs30" />
  <path
     d="m52.625 0c-29.054 0-52.625 23.571-52.625 52.625s23.571 52.594 52.625 52.594c5.5874 0 10.98-0.88711 16.031-2.5v-26.25c-4.3621 2.5362-9.4669 4-14.938 4-15.988 0-28.938-12.465-28.938-27.844s12.95-27.844 28.938-27.844c5.4706 0 10.575 1.4638 14.938 4v-26.281c-5.0513-1.6148-10.444-2.5-16.031-2.5z"
     color="#000000"
     fill="#025"
     id="path2" />
  <polygon
     transform="matrix(.33075 0 0 .32169 9.5987 7.486)"
     points="298.46 78.103 245.46 134.85 179.96 134.85 179.96 78.103"
     fill="#025"
     id="polygon4" />
  <polygon
     transform="matrix(.33075 0 0 .32169 9.5987 7.486)"
     points="298.46 203.1 245.46 146.35 179.96 146.35 179.96 203.1"
     fill="#f00"
     id="polygon6" />
</svg>
