<?xml version="1.0" encoding="UTF-8" standalone="no"?>
<!-- Generator: Adobe Illustrator 12.0.0, SVG Export Plug-In . SVG Version: 6.00 Build 51448)  -->

<svg
   version="1.1"
   id="Layer_1"
   width="460"
   height="460"
   viewBox="0 0 459.99999 460"
   overflow="visible"
   enable-background="new 0 0 354.346 659.055"
   xml:space="preserve"
   xmlns="http://www.w3.org/2000/svg"
   xmlns:svg="http://www.w3.org/2000/svg"><defs
   id="defs1558">
	
	
	
	
	
	
	
	
	
	
	
	
	
</defs>
<path
   fill-rule="evenodd"
   clip-rule="evenodd"
   fill="#0074bd"
   d="m 167.151,353.592 c 0,0 -17.265,10.049 12.301,13.44 35.824,4.09 54.13,3.501 93.596,-3.959 0,0 10.397,6.504 24.892,12.137 -88.501,37.917 -200.296,-2.197 -130.789,-21.618 z"
   id="path1527" /><path
   fill-rule="evenodd"
   clip-rule="evenodd"
   fill="#0074bd"
   d="m 156.331,304.104 c 0,0 -19.367,14.339 10.221,17.397 38.271,3.951 68.483,4.275 120.792,-5.792 0,0 7.218,7.332 18.585,11.339 -106.986,31.294 -226.147,2.462 -149.598,-22.944 z"
   id="path1529" /><path
   fill-rule="evenodd"
   clip-rule="evenodd"
   fill="#ea2d2e"
   d="m 247.494,220.145 c 21.818,25.115 -5.721,47.697 -5.721,47.697 0,0 55.367,-28.577 29.945,-64.38 -23.752,-33.373 -41.962,-49.951 56.623,-107.124 10e-4,0 -154.754,38.641 -80.847,123.807 z"
   id="path1531" /><path
   fill-rule="evenodd"
   clip-rule="evenodd"
   fill="#0074bd"
   d="m 364.542,390.202 c 0,0 12.781,10.536 -14.077,18.684 -51.071,15.469 -212.604,20.135 -257.47,0.619 -16.117,-7.02 14.121,-16.75 23.635,-18.805 9.92,-2.146 15.584,-1.754 15.584,-1.754 -17.937,-12.631 -115.935,24.807 -49.772,35.544 180.429,29.246 328.895,-13.173 282.1,-34.288 z"
   id="path1533" /><path
   fill-rule="evenodd"
   clip-rule="evenodd"
   fill="#0074bd"
   d="m 175.46,252.822 c 0,0 -82.155,19.519 -29.092,26.613 22.412,2.999 67.063,2.309 108.685,-1.183 34.006,-2.854 68.133,-8.958 68.133,-8.958 0,0 -11.982,5.14 -20.657,11.06 -83.444,21.947 -244.612,11.726 -198.207,-10.712 39.227,-18.977 71.138,-16.82 71.138,-16.82 z"
   id="path1535" /><path
   fill-rule="evenodd"
   clip-rule="evenodd"
   fill="#0074bd"
   d="m 322.846,335.198 c 84.818,-44.063 45.597,-86.412 18.223,-80.708 -6.694,1.397 -9.697,2.607 -9.697,2.607 0,0 2.494,-3.907 7.243,-5.588 54.155,-19.03 95.794,56.146 -17.464,85.919 -0.001,0 1.302,-1.18 1.695,-2.23 z"
   id="path1537" /><path
   fill-rule="evenodd"
   clip-rule="evenodd"
   fill="#ea2d2e"
   d="m 271.719,4 c 0,0 46.963,46.99 -44.557,119.227 -73.393,57.969 -16.734,91.009 -0.026,128.778 C 184.291,213.352 152.865,179.321 173.944,147.653 204.898,101.174 290.663,78.632 271.719,4 Z"
   id="path1539" /><path
   fill-rule="evenodd"
   clip-rule="evenodd"
   fill="#0074bd"
   d="m 183.799,454.637 c 81.397,5.204 206.426,-2.896 209.385,-41.415 0,0 -5.688,14.602 -67.276,26.188 -69.481,13.081 -155.197,11.558 -206.016,3.167 0,0 10.411,8.617 63.907,12.06 z"
   id="path1541" />
</svg>
