<?xml version="1.0" encoding="UTF-8" standalone="no"?>
<svg
   viewBox="0 0 512 512"
   version="1.1"
   id="svg2521"
   sodipodi:docname="Adobe_PDF_icon.svg"
   inkscape:version="1.1.2 (0a00cf5339, 2022-02-04)"
   xmlns:inkscape="http://www.inkscape.org/namespaces/inkscape"
   xmlns:sodipodi="http://sodipodi.sourceforge.net/DTD/sodipodi-0.dtd"
   xmlns="http://www.w3.org/2000/svg"
   xmlns:svg="http://www.w3.org/2000/svg">
  <defs
     id="defs2525" />
  <sodipodi:namedview
     id="namedview2523"
     pagecolor="#ffffff"
     bordercolor="#666666"
     borderopacity="1.0"
     inkscape:pageshadow="2"
     inkscape:pageopacity="0.0"
     inkscape:pagecheckerboard="0"
     showgrid="false"
     inkscape:zoom="1.4042969"
     inkscape:cx="250.65925"
     inkscape:cy="255.64395"
     inkscape:window-width="2560"
     inkscape:window-height="1391"
     inkscape:window-x="2880"
     inkscape:window-y="25"
     inkscape:window-maximized="1"
     inkscape:current-layer="svg2521" />
  <path
     id="path2513"
     d="M 72 0 C 50 0 32 18 32 40 L 32 472 C 32 494 50 512 72 512 L 440 512 C 462 512 480 494 480 472 L 480 168 C 480 146 467.29922 115.3007 451.69922 99.720703 L 380.30078 28.279297 C 364.70078 12.729297 334 0 312 0 L 72 0 z M 72 32 L 312 32 C 314.4 32 317.1 32.299609 320 32.849609 L 320 160.05078 L 447.09961 160.05078 C 447.69961 162.95078 448 165.65078 448 168.05078 L 448 472 C 448 476.3 444.3 480 440 480 L 72 480 C 67.66 480 64 476.3 64 472 L 64 40 C 64 35.66 67.66 32 72 32 z M 352 46.269531 C 354.2 47.789531 356.09922 49.350156 357.69922 50.910156 L 429.09961 122.30078 C 430.69961 123.90078 432.19922 125.8 433.69922 128 L 352 128 L 352 46.269531 z " />
  <path
     d="m414.5 316.8c-2.1 1.3-8.1 2.1-11.9 2.1-12.4 0-27.6-5.7-49.1-14.9 8.3-.6 15.8-.9 22.6-.9 12.4 0 16 0 28.2 3.1 12.1 3 12.2 9.3 10.2 10.6zm-215.1 1.9c4.8-8.4 9.7-17.3 14.7-26.8 12.2-23.1 20-41.3 25.7-56.2 11.5 20.9 25.8 38.6 42.5 52.8 2.1 1.8 4.3 3.5 6.7 5.3-34.1 6.8-63.6 15-89.6 24.9zm39.8-218.9c6.8 0 10.7 17.06 11 33.16.3 16-3.4 27.2-8.1 35.6-3.9-12.4-5.7-31.8-5.7-44.5 0 0-.3-24.26 2.8-24.26zm-133.4 307.2c3.9-10.5 19.1-31.3 41.6-49.8 1.4-1.1 4.9-4.4 8.1-7.4-23.5 37.6-39.3 52.5-49.7 57.2zm315.2-112.3c-6.8-6.7-22-10.2-45-10.5-15.6-.2-34.3 1.2-54.1 3.9-8.8-5.1-17.9-10.6-25.1-17.3-19.2-18-35.2-42.9-45.2-70.3.6-2.6 1.2-4.8 1.7-7.1 0 0 10.8-61.5 7.9-82.3-.4-2.9-.6-3.7-1.4-5.9l-.9-2.5c-2.9-6.76-8.7-13.96-17.8-13.57l-5.3-.17h-.1c-10.1 0-18.4 5.17-20.5 12.84-6.6 24.3.2 60.5 12.5 107.4l-3.2 7.7c-8.8 21.4-19.8 43-29.5 62l-1.3 2.5c-10.2 20-19.5 37-27.9 51.4l-8.7 4.6c-.6.4-15.5 8.2-19 10.3-29.6 17.7-49.28 37.8-52.54 53.8-1.04 5-.26 11.5 5.01 14.6l8.4 4.2c3.63 1.8 7.53 2.7 11.43 2.7 21.1 0 45.6-26.2 79.3-85.1 39-12.7 83.4-23.3 122.3-29.1 29.6 16.7 66 28.3 89 28.3 4.1 0 7.6-.4 10.5-1.2 4.4-1.1 8.1-3.6 10.4-7.1 4.4-6.7 5.4-15.9 4.1-25.4-.3-2.8-2.6-6.3-5-8.7z"
     id="path2517" />
</svg>
