<?xml version="1.0" encoding="UTF-8" standalone="no"?>
<svg
   id="Layer_1"
   data-name="Layer 1"
   viewBox="0 0 270 270"
   version="1.1"
   width="270"
   height="270"
   xmlns="http://www.w3.org/2000/svg"
   xmlns:svg="http://www.w3.org/2000/svg"
   xmlns:rdf="http://www.w3.org/1999/02/22-rdf-syntax-ns#"
   xmlns:cc="http://creativecommons.org/ns#"
   xmlns:dc="http://purl.org/dc/elements/1.1/">
  <defs
     id="defs1938" />
  <title
     id="title1911">scala-full-color</title>
  <path
     d="m 51.828962,100.81201 c 2.350946,3.24049 22.175137,9.35295 51.746228,15.71957 29.57108,5.66768 60.32399,28.04615 84.2401,21.14579 16.17705,-4.67647 33.72654,-46.345392 33.72654,-52.534098 v -0.635391 c 0,-4.320657 -3.24049,-7.789891 -8.74297,-10.674565 C 190.24249,62.307327 185.97265,58.062917 177.61092,60.363031 134.20102,72.346501 57.560186,66.221334 51.828962,100.81201 Z"
     style="fill:#380d09;fill-rule:evenodd;stroke-width:1;fill-opacity:0.69999999"
     id="path1923" />
  <path
     d="m 51.828962,185.42064 c 2.350946,3.29133 22.175137,9.35295 51.746228,15.73228 33.04031,6.02351 61.77269,25.65708 85.7015,18.74402 16.17704,-4.67647 32.26514,-43.94362 32.26514,-50.14503 v -0.60998 c 0,-4.30795 -3.24049,-7.78989 -8.74297,-10.66186 -17.20639,-9.14962 -39.94067,-19.22692 -48.2897,-16.9268 -43.48614,11.95805 -101.611691,14.58857 -112.680198,43.86737 z"
     style="fill:#380d09;fill-rule:evenodd;stroke-width:1;fill-opacity:0.69999999"
     id="path1925" />
  <path
     d="m 51.587513,118.9969 v 0.60997 0 a 4.7400151,4.7400151 0 0 1 0,-0.60997 z"
     style="fill:#555555;fill-rule:evenodd;stroke-width:1"
     id="path1927" />
  <path
     d="M 189.21315,16.876887 C 149.23437,28.428291 85.809661,34.9474 51.638345,34.9474 v 0 65.25463 a 1.0166252,1.0166252 0 0 0 0.241448,0.60998 c 23.318841,0 95.308607,-7.624692 138.743917,-19.570038 a 163.93082,163.93082 0 0 0 22.22598,-7.38324 c 5.31187,-2.389069 8.74297,-4.905217 8.74297,-7.523027 V 0.52192851 C 221.54183,6.7233425 205.3902,12.213119 189.21315,16.876887 Z"
     style="fill:#de3423;fill-rule:evenodd;stroke-width:1"
     id="path1929" />
  <path
     d="m 189.21315,101.49823 c -23.92881,6.90034 -56.21938,12.0343 -85.63796,15.03335 -19.747949,2.02054 -38.199697,3.07529 -51.936845,3.07529 v 0 65.2038 a 1.0166252,1.0166252 0 0 0 0.241448,0.60997 c 23.318841,0 95.308607,-7.62468 138.743917,-19.55733 a 165.68449,165.68449 0 0 0 22.22598,-7.38324 c 5.31187,-2.40178 8.74297,-4.90521 8.74297,-7.52302 V 85.143272 c -0.0508,6.188706 -16.20246,11.678482 -32.37951,16.354958 z"
     style="fill:#de3423;fill-rule:evenodd;stroke-width:1"
     id="path1931" />
  <path
     d="m 189.21315,186.1704 c -23.92881,6.90035 -56.21938,12.0216 -85.63796,15.03335 -19.773364,2.02054 -38.250528,3.07529 -51.987677,3.07529 v 65.76294 c 23.077392,0 95.435687,-7.56115 138.985367,-19.55732 16.04997,-4.42232 30.96895,-9.45462 30.96895,-14.91898 v -65.81377 c 0,6.25225 -16.15163,11.69119 -32.32868,16.41849 z"
     style="fill:#de3423;fill-rule:evenodd;stroke-width:1"
     id="path1933" />
  <metadata
     id="metadata1997">
    <rdf:RDF>
      <cc:Work
         rdf:about="">
        <dc:title>scala-full-color</dc:title>
      </cc:Work>
    </rdf:RDF>
  </metadata>
</svg>
