<?xml version="1.0" encoding="UTF-8" standalone="no"?>
<!-- Created with Inkscape (http://www.inkscape.org/) -->

<svg
   width="210mm"
   height="297mm"
   viewBox="0 0 210 297"
   version="1.1"
   id="svg5"
   inkscape:version="1.1.2 (0a00cf5339, 2022-02-04)"
   sodipodi:docname="ictects-logo-01.svg"
   xmlns:inkscape="http://www.inkscape.org/namespaces/inkscape"
   xmlns:sodipodi="http://sodipodi.sourceforge.net/DTD/sodipodi-0.dtd"
   xmlns="http://www.w3.org/2000/svg"
   xmlns:svg="http://www.w3.org/2000/svg">
  <sodipodi:namedview
     id="namedview7"
     pagecolor="#ffffff"
     bordercolor="#666666"
     borderopacity="1.0"
     inkscape:pageshadow="2"
     inkscape:pageopacity="0.0"
     inkscape:pagecheckerboard="false"
     inkscape:document-units="mm"
     showgrid="false"
     showguides="true"
     showborder="false"
     inkscape:zoom="4.2696962"
     inkscape:cx="777.22157"
     inkscape:cy="220.03907"
     inkscape:window-width="2560"
     inkscape:window-height="1391"
     inkscape:window-x="0"
     inkscape:window-y="25"
     inkscape:window-maximized="1"
     inkscape:current-layer="layer1"
     inkscape:guide-bbox="true">
    <sodipodi:guide
       position="217.50669,253.12686"
       orientation="0,-1"
       id="guide203491" />
    <sodipodi:guide
       position="218.88938,256.22012"
       orientation="0,-1"
       id="guide204555" />
  </sodipodi:namedview>
  <defs
     id="defs2" />
  <g
     inkscape:label="Layer 1"
     inkscape:groupmode="layer"
     id="layer1">
    <path
       id="text1617"
       style="font-style:normal;font-variant:normal;font-weight:normal;font-stretch:normal;font-size:6.35px;line-height:1.25;font-family:sans-serif;-inkscape-font-specification:'sans-serif, Normal';font-variant-ligatures:normal;font-variant-caps:normal;font-variant-numeric:normal;text-align:start;letter-spacing:0px;word-spacing:0px;writing-mode:lr-tb;text-anchor:start;fill:#000000;fill-opacity:1;stroke:none;stroke-width:0.264583"
       d="m 16.837603,39.206234 c -0.700733,0 -1.252638,0.214974 -1.655713,0.644922 -0.403076,0.427882 -0.604615,1.013894 -0.604615,1.758035 0,0.742071 0.201539,1.328084 0.604615,1.758031 0.403075,0.427879 0.95498,0.641821 1.655713,0.641821 0.272851,0 0.531233,-0.03721 0.775147,-0.111622 0.245978,-0.07441 0.478523,-0.186034 0.697632,-0.334862 v -0.654225 c -0.210841,0.196372 -0.43615,0.343133 -0.675928,0.440283 -0.237713,0.09715 -0.490927,0.14573 -0.759646,0.14573 -0.529166,0 -0.934309,-0.161232 -1.215429,-0.483693 -0.28112,-0.324527 -0.42168,-0.791684 -0.42168,-1.401463 0,-0.611849 0.14056,-1.079006 0.42168,-1.401467 0.28112,-0.324527 0.686263,-0.486791 1.215429,-0.486791 0.268719,0 0.521933,0.04857 0.759646,0.145728 0.239778,0.09715 0.465087,0.243911 0.675928,0.440282 v -0.660424 c -0.214974,-0.146761 -0.445452,-0.256315 -0.691433,-0.328662 -0.243911,-0.07441 -0.504362,-0.111623 -0.781346,-0.111623 z m -3.866431,0.08372 v 4.629174 h 0.626319 v -4.629174 z m 5.664769,0 v 0.5271 h 1.643311 v 4.102074 h 0.62942 v -4.102074 h 1.643312 v -0.5271 z m 18.656226,0 v 4.629174 h 1.661914 c 0.518832,0 0.918808,-0.112655 1.199928,-0.337963 0.281119,-0.225309 0.421679,-0.544669 0.421679,-0.95808 0,-0.314193 -0.08578,-0.575675 -0.257349,-0.78445 -0.169498,-0.210839 -0.408244,-0.349332 -0.716235,-0.415478 0.256315,-0.04134 0.45062,-0.145727 0.582911,-0.313158 0.132292,-0.167434 0.198438,-0.392742 0.198438,-0.675928 0,-0.365869 -0.129191,-0.648023 -0.387575,-0.846461 -0.258382,-0.198437 -0.626317,-0.297656 -1.103807,-0.297656 z m 3.587379,0 1.767332,4.629174 h 0.710036 l 1.764234,-4.629174 h -0.651124 l -1.469678,3.897437 -1.466578,-3.897437 z m -11.438061,0.170532 v 0.985986 h -0.418579 v 0.443386 h 0.418579 v 1.885156 c 0,0.434081 0.08371,0.733803 0.251147,0.899168 0.167431,0.163298 0.47129,0.244946 0.911572,0.244946 h 0.58601 v -0.477489 h -0.58601 c -0.237712,0 -0.39584,-0.04031 -0.47439,-0.120922 -0.07648,-0.08062 -0.114721,-0.262517 -0.114721,-0.545703 v -1.885156 h 1.175121 v -0.443386 h -1.175121 v -0.985986 z m 8.477001,0.344165 h 0.927076 c 0.305925,0 0.5333,0.05788 0.682128,0.173632 0.150894,0.115756 0.226343,0.290423 0.226343,0.524 0,0.235646 -0.07545,0.411345 -0.226343,0.5271 -0.148828,0.113689 -0.376203,0.170532 -0.682128,0.170532 h -0.927076 z m -14.411523,0.558106 c -0.520899,0 -0.935345,0.167431 -1.243336,0.502296 -0.305924,0.332796 -0.458885,0.783413 -0.458885,1.351854 0,0.549839 0.161229,0.985986 0.48369,1.308447 0.324527,0.322461 0.763778,0.483692 1.317749,0.483692 0.221176,0 0.439251,-0.02274 0.654225,-0.06821 0.214974,-0.04548 0.424781,-0.111622 0.629417,-0.198437 V 43.20289 c -0.20257,0.107487 -0.407209,0.188103 -0.613915,0.241847 -0.204639,0.05374 -0.416512,0.08061 -0.635619,0.08061 -0.378272,0 -0.673862,-0.10232 -0.88677,-0.306957 -0.210838,-0.206705 -0.32866,-0.506431 -0.353465,-0.89917 h 2.623095 v -0.27905 c 0,-0.516763 -0.136427,-0.925007 -0.409278,-1.224729 -0.270783,-0.301792 -0.639752,-0.452687 -1.106908,-0.452687 z m 3.950147,0 c -0.541571,0 -0.968418,0.162264 -1.280544,0.486791 -0.310057,0.324528 -0.465087,0.76998 -0.465087,1.336353 0,0.558106 0.153995,1.00149 0.461989,1.330153 0.307991,0.32866 0.723469,0.492992 1.246433,0.492992 0.192239,0 0.373105,-0.0186 0.542603,-0.05581 0.171566,-0.03721 0.336931,-0.09302 0.496093,-0.167431 v -0.5271 c -0.161229,0.08888 -0.323492,0.156062 -0.486791,0.201538 -0.161229,0.04341 -0.324527,0.06511 -0.489892,0.06511 -0.370003,0 -0.657325,-0.116787 -0.861962,-0.350367 -0.204639,-0.235643 -0.306959,-0.565338 -0.306959,-0.989086 0,-0.423747 0.10232,-0.752409 0.306959,-0.985986 0.204637,-0.235643 0.491959,-0.353468 0.861962,-0.353468 0.165365,0 0.328663,0.02274 0.489892,0.06822 0.163299,0.04341 0.325562,0.109554 0.486791,0.198438 v -0.533302 c -0.157096,-0.07235 -0.31936,-0.12609 -0.486791,-0.161229 -0.167431,-0.03721 -0.338997,-0.05581 -0.514696,-0.05581 z m 5.587256,0 c -0.425815,0 -0.754478,0.08888 -0.985988,0.26665 -0.231511,0.177768 -0.347266,0.429948 -0.347266,0.756544 0,0.268716 0.07855,0.48059 0.235646,0.635619 0.157096,0.152961 0.412377,0.26665 0.765845,0.341064 l 0.198437,0.04651 c 0.353467,0.07648 0.581877,0.156064 0.685228,0.238747 0.105421,0.08268 0.158131,0.201538 0.158131,0.356565 0,0.167434 -0.07235,0.297656 -0.21704,0.390676 -0.144695,0.09095 -0.351401,0.136424 -0.620117,0.136424 -0.200507,0 -0.403077,-0.02687 -0.607716,-0.08061 -0.20464,-0.05581 -0.412377,-0.138491 -0.623218,-0.248047 v 0.589113 c 0.223242,0.07234 0.435115,0.12609 0.635621,0.161229 0.202571,0.03721 0.396875,0.05581 0.582909,0.05581 0.446485,0 0.796851,-0.09405 1.0511,-0.282154 0.256315,-0.188103 0.384471,-0.443383 0.384471,-0.765844 0,-0.283186 -0.08578,-0.503328 -0.257347,-0.660424 -0.1695,-0.159166 -0.456822,-0.282154 -0.861965,-0.36897 l -0.195336,-0.04341 c -0.305925,-0.06821 -0.50953,-0.139525 -0.610815,-0.213939 -0.101285,-0.07648 -0.151929,-0.180867 -0.151929,-0.313158 0,-0.173633 0.07028,-0.303858 0.210841,-0.390676 0.142627,-0.08681 0.355534,-0.130223 0.63872,-0.130223 0.186034,0 0.365869,0.02067 0.539502,0.06201 0.173633,0.04134 0.341063,0.103354 0.502295,0.186036 v -0.539504 c -0.157096,-0.06201 -0.328662,-0.108519 -0.514696,-0.139525 -0.186037,-0.03101 -0.384474,-0.04651 -0.595313,-0.04651 z m -9.531202,0.48369 c 0.28112,0 0.506429,0.09302 0.675929,0.279054 0.171564,0.186036 0.259413,0.435115 0.263549,0.747241 l -2.033985,0.0031 c 0.02894,-0.326596 0.138494,-0.57981 0.328663,-0.759645 0.192236,-0.179832 0.447516,-0.269751 0.765844,-0.26975 z m 14.405322,0.861965 h 1.004591 c 0.336928,0 0.58601,0.06924 0.747239,0.207738 0.163298,0.136427 0.244949,0.349332 0.244949,0.63872 0,0.287322 -0.08165,0.501264 -0.244949,0.641824 -0.161229,0.13849 -0.410311,0.207737 -0.747239,0.207737 h -1.004591 z" />
    <text
       xml:space="preserve"
       style="font-size:6.35px;line-height:1.25;font-family:'Bowlby One SC';-inkscape-font-specification:'Bowlby One SC';letter-spacing:0px;word-spacing:0px;writing-mode:lr-tb;stroke-width:0.264583"
       x="11.338552"
       y="52.033974"
       id="text21913"><tspan
         sodipodi:role="line"
         id="tspan21911"
         style="stroke-width:0.264583"
         x="11.338552"
         y="52.033974">ICTects BV</tspan></text>
    <text
       xml:space="preserve"
       style="font-style:normal;font-variant:normal;font-weight:normal;font-stretch:normal;font-size:6.35px;line-height:1.25;font-family:Cousine;-inkscape-font-specification:Cousine;letter-spacing:0px;word-spacing:0px;writing-mode:lr-tb;stroke-width:0.264583"
       x="10.725975"
       y="60.340977"
       id="text35911"><tspan
         sodipodi:role="line"
         id="tspan35909"
         style="font-style:normal;font-variant:normal;font-weight:normal;font-stretch:normal;font-family:Cousine;-inkscape-font-specification:Cousine;stroke-width:0.264583"
         x="10.725975"
         y="60.340977">ICTects BV</tspan></text>
    <text
       xml:space="preserve"
       style="font-size:6.35px;line-height:1.25;font-family:C059;-inkscape-font-specification:C059;letter-spacing:0px;word-spacing:0px;writing-mode:lr-tb;stroke-width:0.264583"
       x="13.860142"
       y="69.11702"
       id="text39545"><tspan
         sodipodi:role="line"
         id="tspan39543"
         style="stroke-width:0.264583"
         x="13.860142"
         y="69.11702">ICTects BV</tspan></text>
    <text
       xml:space="preserve"
       style="font-size:6.35px;line-height:1.25;font-family:Cousine;-inkscape-font-specification:Cousine;letter-spacing:0px;word-spacing:0px;writing-mode:lr-tb;stroke-width:0.264583"
       x="9.6986055"
       y="76.988823"
       id="text45137"><tspan
         sodipodi:role="line"
         id="tspan45135"
         style="stroke-width:0.264583"
         x="9.6986055"
         y="76.988823">ICTects BV</tspan></text>
    <text
       xml:space="preserve"
       style="font-size:6.35px;line-height:1.25;font-family:'DejaVu Serif';-inkscape-font-specification:'DejaVu Serif';letter-spacing:0px;word-spacing:0px;writing-mode:lr-tb;stroke-width:0.264583"
       x="10.468014"
       y="84.659592"
       id="text49057"><tspan
         sodipodi:role="line"
         id="tspan49055"
         style="stroke-width:0.264583"
         x="10.468014"
         y="84.659592">ICTects BV</tspan></text>
    <text
       xml:space="preserve"
       style="font-size:6.35px;line-height:1.25;font-family:'IBM Plex Serif';-inkscape-font-specification:'IBM Plex Serif';letter-spacing:0px;word-spacing:0px;writing-mode:lr-tb;stroke-width:0.264583"
       x="11.350873"
       y="91.567558"
       id="text53527"><tspan
         sodipodi:role="line"
         id="tspan53525"
         style="stroke-width:0.264583"
         x="11.350873"
         y="91.567558">ICTects BV</tspan></text>
    <text
       xml:space="preserve"
       style="font-size:6.35px;line-height:1.25;font-family:'Liberation Sans Narrow';-inkscape-font-specification:'Liberation Sans Narrow';letter-spacing:0px;word-spacing:0px;writing-mode:lr-tb;stroke-width:0.264583"
       x="65.655624"
       y="43.235825"
       id="text57823"><tspan
         sodipodi:role="line"
         id="tspan57821"
         style="stroke-width:0.264583"
         x="65.655624"
         y="43.235825">ICTects BV</tspan></text>
    <text
       xml:space="preserve"
       style="font-size:6.35px;line-height:1.25;font-family:NanumGothic;-inkscape-font-specification:NanumGothic;letter-spacing:0px;word-spacing:0px;writing-mode:lr-tb;stroke-width:0.264583"
       x="64.556572"
       y="50.911217"
       id="text61055"><tspan
         sodipodi:role="line"
         id="tspan61053"
         style="stroke-width:0.264583"
         x="64.556572"
         y="50.911217">ICTects BV</tspan></text>
    <text
       xml:space="preserve"
       style="font-size:6.35px;line-height:1.25;font-family:NanumSquare;-inkscape-font-specification:NanumSquare;letter-spacing:0px;word-spacing:0px;writing-mode:lr-tb;stroke-width:0.264583"
       x="64.810532"
       y="59.640812"
       id="text63515"><tspan
         sodipodi:role="line"
         id="tspan63513"
         style="stroke-width:0.264583"
         x="64.810532"
         y="59.640812">ICTects BV</tspan></text>
    <text
       xml:space="preserve"
       style="font-size:6.35px;line-height:1.25;font-family:'Nimbus Roman';-inkscape-font-specification:'Nimbus Roman, ';letter-spacing:0px;word-spacing:0px;writing-mode:lr-tb;stroke-width:0.264583"
       x="108.3945"
       y="68.649742"
       id="text66825"><tspan
         sodipodi:role="line"
         id="tspan66823"
         style="stroke-width:0.264583"
         x="108.3945"
         y="68.649742">ICTects BV</tspan></text>
    <text
       xml:space="preserve"
       style="font-size:6.35px;line-height:1.25;font-family:Nunito;-inkscape-font-specification:Nunito;letter-spacing:0px;word-spacing:0px;writing-mode:lr-tb;stroke-width:0.264583"
       x="64.222137"
       y="75.060349"
       id="text74411"><tspan
         sodipodi:role="line"
         id="tspan74409"
         style="stroke-width:0.264583"
         x="64.222137"
         y="75.060349">ICTects BV</tspan></text>
    <text
       xml:space="preserve"
       style="font-size:6.35px;line-height:1.25;font-family:'Nunito Sans';-inkscape-font-specification:'Nunito Sans';letter-spacing:0px;word-spacing:0px;writing-mode:lr-tb;stroke-width:0.264583"
       x="65.816124"
       y="82.02961"
       id="text79553"><tspan
         sodipodi:role="line"
         id="tspan79551"
         style="stroke-width:0.264583"
         x="65.816124"
         y="82.02961">ICTects BV</tspan></text>
    <text
       xml:space="preserve"
       style="font-size:6.35px;line-height:1.25;font-family:Pacifico;-inkscape-font-specification:Pacifico;letter-spacing:0px;word-spacing:0px;writing-mode:lr-tb;stroke-width:0.264583"
       x="63.70858"
       y="90.849709"
       id="text83757"><tspan
         sodipodi:role="line"
         id="tspan83755"
         style="stroke-width:0.264583"
         x="63.70858"
         y="90.849709">ICTects BV</tspan></text>
    <text
       xml:space="preserve"
       style="font-size:6.35px;line-height:1.25;font-family:Rubik;-inkscape-font-specification:Rubik;letter-spacing:0px;word-spacing:0px;writing-mode:lr-tb;stroke-width:0.264583"
       x="13.556524"
       y="99.343407"
       id="text95403"><tspan
         sodipodi:role="line"
         id="tspan95401"
         style="stroke-width:0.264583"
         x="13.556524"
         y="99.343407">ICTects BV</tspan></text>
    <text
       xml:space="preserve"
       style="font-size:6.35px;line-height:1.25;font-family:TakaoPGothic;-inkscape-font-specification:TakaoPGothic;letter-spacing:0px;word-spacing:0px;writing-mode:lr-tb;stroke-width:0.264583"
       x="64.424065"
       y="99.30072"
       id="text98583"><tspan
         sodipodi:role="line"
         id="tspan98581"
         style="stroke-width:0.264583"
         x="64.424065"
         y="99.30072">ICTects BV</tspan></text>
    <text
       xml:space="preserve"
       style="font-style:normal;font-variant:normal;font-weight:normal;font-stretch:normal;font-size:6.35px;line-height:1.25;font-family:'URW Bookman';-inkscape-font-specification:'URW Bookman';letter-spacing:0px;word-spacing:0px;writing-mode:lr-tb;stroke-width:0.264583"
       x="109.25019"
       y="43.699799"
       id="text102435"><tspan
         sodipodi:role="line"
         id="tspan102433"
         style="font-style:normal;font-variant:normal;font-weight:normal;font-stretch:normal;font-family:'URW Bookman';-inkscape-font-specification:'URW Bookman';stroke-width:0.264583"
         x="109.25019"
         y="43.699799">ICTects BV</tspan></text>
    <text
       xml:space="preserve"
       style="font-size:6.35px;line-height:1.25;font-family:Ubuntu;-inkscape-font-specification:Ubuntu;letter-spacing:0px;word-spacing:0px;writing-mode:lr-tb;stroke-width:0.264583"
       x="109.81982"
       y="51.856316"
       id="text105467"><tspan
         sodipodi:role="line"
         id="tspan105465"
         style="stroke-width:0.264583"
         x="109.81982"
         y="51.856316">ICTects BV</tspan></text>
    <text
       xml:space="preserve"
       style="font-size:6.35px;line-height:1.25;font-family:'URW Gothic';-inkscape-font-specification:'URW Gothic';letter-spacing:0px;word-spacing:0px;writing-mode:lr-tb;stroke-width:0.264583"
       x="109.45142"
       y="60.653526"
       id="text109943"><tspan
         sodipodi:role="line"
         id="tspan109941"
         style="stroke-width:0.264583"
         x="109.45142"
         y="60.653526">ICTects BV</tspan></text>
    <text
       xml:space="preserve"
       style="font-size:6.35px;line-height:1.25;font-family:'Nimbus Roman';-inkscape-font-specification:'Nimbus Roman, ';letter-spacing:0px;word-spacing:0px;writing-mode:lr-tb;stroke-width:0.264583"
       x="147.2482"
       y="68.39006"
       id="text66825-4"><tspan
         sodipodi:role="line"
         id="tspan66823-8"
         style="stroke-width:0.264583"
         x="147.2482"
         y="68.39006">ICTects <tspan
   style="font-size:4.93889px;fill:#b3b3b3"
   id="tspan120550">BV</tspan></tspan></text>
    <text
       xml:space="preserve"
       style="font-style:normal;font-variant:normal;font-weight:normal;font-stretch:normal;font-size:6.35px;line-height:1.25;font-family:'URW Bookman';-inkscape-font-specification:'URW Bookman';letter-spacing:0px;word-spacing:0px;writing-mode:lr-tb;stroke-width:0.264583"
       x="148.10388"
       y="43.440113"
       id="text102435-7"><tspan
         sodipodi:role="line"
         id="tspan102433-1"
         style="font-style:normal;font-variant:normal;font-weight:normal;font-stretch:normal;font-family:'URW Bookman';-inkscape-font-specification:'URW Bookman';stroke-width:0.264583"
         x="148.10388"
         y="43.440113">ICTects <tspan
   style="font-size:4.93889px;fill:#808080"
   id="tspan114962">BV</tspan></tspan></text>
    <text
       xml:space="preserve"
       style="font-style:normal;font-variant:normal;font-weight:normal;font-stretch:normal;font-size:6.35px;line-height:1.25;font-family:'URW Bookman';-inkscape-font-specification:'URW Bookman';letter-spacing:0px;word-spacing:0px;writing-mode:lr-tb;stroke-width:0.264583"
       x="221.38368"
       y="37.284542"
       id="text102435-7-1"><tspan
         sodipodi:role="line"
         id="tspan102433-1-5"
         style="font-style:normal;font-variant:normal;font-weight:normal;font-stretch:normal;font-family:'URW Bookman';-inkscape-font-specification:'URW Bookman';stroke-width:0.264583"
         x="221.38368"
         y="37.284542">ictects <tspan
   style="font-size:4.58611px;fill:#808080"
   id="tspan114962-9">BV</tspan></tspan></text>
    <text
       xml:space="preserve"
       style="font-size:6.35px;line-height:1.25;font-family:Ubuntu;-inkscape-font-specification:Ubuntu;letter-spacing:0px;word-spacing:0px;writing-mode:lr-tb;stroke-width:0.264583"
       x="148.67351"
       y="51.59663"
       id="text105467-7"><tspan
         sodipodi:role="line"
         id="tspan105465-2"
         style="stroke-width:0.264583"
         x="148.67351"
         y="51.59663">ICTects <tspan
   style="font-size:4.93889px;fill:#999999"
   id="tspan117162">BV</tspan></tspan></text>
    <text
       xml:space="preserve"
       style="font-size:6.35px;line-height:1.25;font-family:'URW Gothic';-inkscape-font-specification:'URW Gothic';letter-spacing:0px;word-spacing:0px;writing-mode:lr-tb;stroke-width:0.264583"
       x="148.30511"
       y="60.393841"
       id="text109943-7"><tspan
         sodipodi:role="line"
         id="tspan109941-2"
         style="stroke-width:0.264583"
         x="148.30511"
         y="60.393841">ICTects <tspan
   style="font-size:4.93889px;fill:#999999"
   id="tspan118974">BV</tspan></tspan></text>
    <text
       xml:space="preserve"
       style="font-size:6.35px;line-height:1.25;font-family:'Nimbus Roman';-inkscape-font-specification:'Nimbus Roman, ';letter-spacing:0px;word-spacing:0px;writing-mode:lr-tb;stroke-width:0.264583"
       x="185.72273"
       y="68.707626"
       id="text66825-4-2"><tspan
         sodipodi:role="line"
         id="tspan66823-8-6"
         style="stroke-width:0.264583"
         x="185.72273"
         y="68.707626">ICTects <tspan
   style="font-size:4.93889px;fill:#b3b3b3"
   id="tspan120550-1">BV</tspan></tspan></text>
    <text
       xml:space="preserve"
       style="font-style:normal;font-variant:normal;font-weight:normal;font-stretch:normal;font-size:6.35px;line-height:1.25;font-family:'URW Bookman';-inkscape-font-specification:'URW Bookman';letter-spacing:0px;word-spacing:0px;writing-mode:lr-tb;stroke-width:0.264583"
       x="186.57841"
       y="43.757675"
       id="text102435-7-0"><tspan
         sodipodi:role="line"
         id="tspan102433-1-6"
         style="font-style:normal;font-variant:normal;font-weight:normal;font-stretch:normal;font-family:'URW Bookman';-inkscape-font-specification:'URW Bookman';stroke-width:0.264583"
         x="186.57841"
         y="43.757675"
         dx="0 -0.19 -0.0099999998 -0.79000002 0 0 -0.02">ICTects <tspan
   style="font-size:4.93889px;fill:#808080"
   id="tspan114962-1"
   dx="0 -0.50999999">BV</tspan></tspan></text>
    <text
       xml:space="preserve"
       style="font-style:normal;font-variant:normal;font-weight:normal;font-stretch:normal;font-size:6.35px;line-height:1.25;font-family:'URW Bookman';-inkscape-font-specification:'URW Bookman';letter-spacing:0px;word-spacing:0px;writing-mode:lr-tb;stroke-width:0.264583"
       x="221.58434"
       y="43.920864"
       id="text102435-7-0-7"><tspan
         sodipodi:role="line"
         id="tspan102433-1-6-7"
         style="font-style:normal;font-variant:normal;font-weight:normal;font-stretch:normal;font-family:'URW Bookman';-inkscape-font-specification:'URW Bookman';stroke-width:0.264583"
         x="221.58434"
         y="43.920864"
         dx="0 -0.43000001 -0.58999997 -0.54000002 -0.18000001 -0.58999997 -0.31999999">ictects <tspan
   style="font-size:4.58611px;fill:#808080"
   id="tspan114962-1-1"
   dx="0 -0.50999999">BV</tspan></tspan></text>
    <text
       xml:space="preserve"
       style="font-size:6.35px;line-height:1.25;font-family:Ubuntu;-inkscape-font-specification:Ubuntu;letter-spacing:0px;word-spacing:0px;writing-mode:lr-tb;stroke-width:0.264583"
       x="187.14804"
       y="51.914196"
       id="text105467-7-5"><tspan
         sodipodi:role="line"
         id="tspan105465-2-9"
         style="stroke-width:0.264583"
         x="187.14804"
         y="51.914196">ICTects <tspan
   style="font-size:4.93889px;fill:#999999"
   id="tspan117162-4">BV</tspan></tspan></text>
    <text
       xml:space="preserve"
       style="font-size:6.35px;line-height:1.25;font-family:'URW Gothic';-inkscape-font-specification:'URW Gothic';letter-spacing:0px;word-spacing:0px;writing-mode:lr-tb;stroke-width:0.264583"
       x="186.77965"
       y="60.711407"
       id="text109943-7-9"><tspan
         sodipodi:role="line"
         id="tspan109941-2-0"
         style="stroke-width:0.264583"
         x="186.77965"
         y="60.711407">ICTects <tspan
   style="font-size:4.93889px;fill:#999999"
   id="tspan118974-9">BV</tspan></tspan></text>
    <text
       xml:space="preserve"
       style="font-style:normal;font-variant:normal;font-weight:normal;font-stretch:normal;font-size:6.35px;line-height:1.25;font-family:'URW Bookman';-inkscape-font-specification:'URW Bookman';letter-spacing:0px;word-spacing:0px;writing-mode:lr-tb;stroke-width:0.264583"
       x="222.06955"
       y="51.033974"
       id="text226433"><tspan
         sodipodi:role="line"
         id="tspan226431"
         style="font-style:normal;font-variant:normal;font-weight:normal;font-stretch:normal;font-family:'URW Bookman';-inkscape-font-specification:'URW Bookman';stroke-width:0.264583"
         x="222.06955"
         y="51.033974"
         dx="0 -0.43000001 -0.5 -0.54000002 -0.18000001 -0.5 -0.31999999">ictects <tspan
   style="font-size:4.58611px;fill:#808080"
   id="tspan226429"
   dx="0 -0.50999999">BV</tspan></tspan></text>
    <text
       xml:space="preserve"
       style="font-style:normal;font-variant:normal;font-weight:normal;font-stretch:normal;font-size:6.35px;line-height:1.25;font-family:'URW Bookman';-inkscape-font-specification:'URW Bookman';letter-spacing:0px;word-spacing:0px;writing-mode:lr-tb;stroke-width:0.264583"
       x="222.50592"
       y="57.151531"
       id="text237201"><tspan
         sodipodi:role="line"
         id="tspan237199"
         style="font-style:normal;font-variant:normal;font-weight:normal;font-stretch:normal;font-family:'URW Bookman';-inkscape-font-specification:'URW Bookman';stroke-width:0.264583"
         x="222.50592"
         y="57.151531"
         dx="0 -0.43000001 -0.5 -0.54000002 -0.18000001 -0.5 -0.31999999"><tspan
   style="font-weight:bold"
   id="tspan238869">ict</tspan>ects <tspan
   style="font-size:4.58611px;fill:#808080"
   id="tspan237197"
   dx="0 -0.50999999">BV</tspan></tspan></text>
  </g>
</svg>
