<?xml version="1.0" encoding="UTF-8" standalone="no"?>
<!-- Created with Inkscape (http://www.inkscape.org/) -->

<svg
   width="210mm"
   height="297mm"
   viewBox="0 0 210 297"
   version="1.1"
   id="svg8773"
   inkscape:version="1.1.2 (0a00cf5339, 2022-02-04)"
   sodipodi:docname="logo-2.svg"
   xmlns:inkscape="http://www.inkscape.org/namespaces/inkscape"
   xmlns:sodipodi="http://sodipodi.sourceforge.net/DTD/sodipodi-0.dtd"
   xmlns="http://www.w3.org/2000/svg"
   xmlns:svg="http://www.w3.org/2000/svg">
  <sodipodi:namedview
     id="namedview8775"
     pagecolor="#ffffff"
     bordercolor="#666666"
     borderopacity="1.0"
     inkscape:pageshadow="2"
     inkscape:pageopacity="0.0"
     inkscape:pagecheckerboard="0"
     inkscape:document-units="mm"
     showgrid="true"
     inkscape:zoom="2.3679926"
     inkscape:cx="89.105009"
     inkscape:cy="80.236738"
     inkscape:window-width="2560"
     inkscape:window-height="1391"
     inkscape:window-x="2880"
     inkscape:window-y="25"
     inkscape:window-maximized="1"
     inkscape:current-layer="layer1">
    <inkscape:grid
       type="xygrid"
       id="grid8799" />
  </sodipodi:namedview>
  <defs
     id="defs8770" />
  <g
     inkscape:label="Layer 1"
     inkscape:groupmode="layer"
     id="layer1">
    <path
       style="fill:none;fill-rule:evenodd;stroke:#000000;stroke-width:1.8;stroke-linecap:butt;stroke-linejoin:miter;stroke-miterlimit:4;stroke-dasharray:none;stroke-opacity:1"
       d="M 41.010417,18.520838 H 3.9687561 L 22.489583,3.96875 Z"
       id="path9019" />
    <path
       style="fill:#ffffff;stroke:none;stroke-width:0.503061;stroke-linecap:round;stroke-linejoin:round"
       id="path8803"
       sodipodi:type="arc"
       sodipodi:cx="3.9687684"
       sodipodi:cy="18.520832"
       sodipodi:rx="3.9756663"
       sodipodi:ry="3.9756663"
       sodipodi:start="0"
       sodipodi:end="6.2241757"
       sodipodi:open="true"
       sodipodi:arc-type="arc"
       d="m 7.9444346,18.520832 a 3.9756663,3.9756663 0 0 1 -3.9170177,3.975234 3.9756663,3.9756663 0 0 1 -4.03258448,-3.85795 3.9756663,3.9756663 0 0 1 3.79804148,-4.089057 3.9756663,3.9756663 0 0 1 4.1446409,3.737307" />
    <path
       style="fill:#000000;stroke:#000000;stroke-width:0.755906;stroke-linecap:round;stroke-linejoin:round"
       id="path8801"
       sodipodi:type="arc"
       sodipodi:cx="3.9687655"
       sodipodi:cy="18.520824"
       sodipodi:rx="2.6458333"
       sodipodi:ry="2.6458333"
       sodipodi:start="0"
       sodipodi:end="6.2241757"
       sodipodi:open="true"
       sodipodi:arc-type="arc"
       d="M 6.6145988,18.520824 A 2.6458333,2.6458333 0 0 1 4.0077965,21.16637 2.6458333,2.6458333 0 0 1 1.3240838,18.598878 2.6458333,2.6458333 0 0 1 3.8517066,15.877582 2.6458333,2.6458333 0 0 1 6.6099935,18.364786" />
    <path
       style="fill:#ffffff;stroke:none;stroke-width:0.503061;stroke-linecap:round;stroke-linejoin:round"
       id="path8978"
       sodipodi:type="arc"
       sodipodi:cx="41.010418"
       sodipodi:cy="18.520824"
       sodipodi:rx="3.9756663"
       sodipodi:ry="3.9756663"
       sodipodi:start="0"
       sodipodi:end="6.2241757"
       sodipodi:open="true"
       sodipodi:arc-type="arc"
       d="m 44.986084,18.520824 a 3.9756663,3.9756663 0 0 1 -3.917018,3.975234 3.9756663,3.9756663 0 0 1 -4.032584,-3.857949 3.9756663,3.9756663 0 0 1 3.798041,-4.089058 3.9756663,3.9756663 0 0 1 4.144641,3.737307" />
    <path
       style="fill:#000000;stroke:#000000;stroke-width:0.755906;stroke-linecap:round;stroke-linejoin:round"
       id="path8980"
       sodipodi:type="arc"
       sodipodi:cx="41.010414"
       sodipodi:cy="18.520824"
       sodipodi:rx="2.6458333"
       sodipodi:ry="2.6458333"
       sodipodi:start="0"
       sodipodi:end="6.2241757"
       sodipodi:open="true"
       sodipodi:arc-type="arc"
       d="m 43.656247,18.520824 a 2.6458333,2.6458333 0 0 1 -2.606802,2.645546 2.6458333,2.6458333 0 0 1 -2.683713,-2.567492 2.6458333,2.6458333 0 0 1 2.527623,-2.721296 2.6458333,2.6458333 0 0 1 2.758287,2.487203" />
    <path
       style="fill:#ffffff;stroke:none;stroke-width:0.503061;stroke-linecap:round;stroke-linejoin:round"
       id="path8982"
       sodipodi:type="arc"
       sodipodi:cx="22.494188"
       sodipodi:cy="4.1247902"
       sodipodi:rx="3.9756663"
       sodipodi:ry="3.9756663"
       sodipodi:start="0"
       sodipodi:end="6.2241757"
       sodipodi:open="true"
       sodipodi:arc-type="arc"
       d="M 26.469855,4.1247902 A 3.9756663,3.9756663 0 0 1 22.552837,8.1000239 3.9756663,3.9756663 0 0 1 18.520252,4.2420744 3.9756663,3.9756663 0 0 1 22.318294,0.15301684 3.9756663,3.9756663 0 0 1 26.462935,3.8903238" />
    <path
       style="fill:#000000;stroke:#000000;stroke-width:0.755906;stroke-linecap:round;stroke-linejoin:round"
       id="path8984"
       sodipodi:type="arc"
       sodipodi:cx="22.494184"
       sodipodi:cy="4.1247902"
       sodipodi:rx="2.6458333"
       sodipodi:ry="2.6458333"
       sodipodi:start="0"
       sodipodi:end="6.2241757"
       sodipodi:open="true"
       sodipodi:arc-type="arc"
       d="m 25.140018,4.1247902 a 2.6458333,2.6458333 0 0 1 -2.606803,2.6455453 2.6458333,2.6458333 0 0 1 -2.683712,-2.5674918 2.6458333,2.6458333 0 0 1 2.527623,-2.721296 2.6458333,2.6458333 0 0 1 2.758287,2.4872035" />
  </g>
</svg>
