<?xml version="1.0" encoding="UTF-8" standalone="no"?>
<!-- Created with Inkscape (http://www.inkscape.org/) -->

<svg
   width="210mm"
   height="297mm"
   viewBox="0 0 210 297"
   version="1.1"
   id="svg5"
   inkscape:version="1.1.2 (0a00cf5339, 2022-02-04)"
   sodipodi:docname="logo-1.svg"
   xmlns:inkscape="http://www.inkscape.org/namespaces/inkscape"
   xmlns:sodipodi="http://sodipodi.sourceforge.net/DTD/sodipodi-0.dtd"
   xmlns="http://www.w3.org/2000/svg"
   xmlns:svg="http://www.w3.org/2000/svg">
  <sodipodi:namedview
     id="namedview7"
     pagecolor="#ffffff"
     bordercolor="#666666"
     borderopacity="1.0"
     inkscape:pageshadow="2"
     inkscape:pageopacity="0.0"
     inkscape:pagecheckerboard="0"
     inkscape:document-units="mm"
     showgrid="false"
     inkscape:zoom="22.824124"
     inkscape:cx="303.80136"
     inkscape:cy="480.63181"
     inkscape:window-width="2560"
     inkscape:window-height="1391"
     inkscape:window-x="2880"
     inkscape:window-y="25"
     inkscape:window-maximized="1"
     inkscape:current-layer="layer1">
    <inkscape:grid
       type="xygrid"
       id="grid42" />
  </sodipodi:namedview>
  <defs
     id="defs2" />
  <g
     inkscape:label="Layer 1"
     inkscape:groupmode="layer"
     id="layer1">
    <path
       style="fill:none;fill-rule:evenodd;stroke:#000000;stroke-width:1.5;stroke-linecap:butt;stroke-linejoin:miter;stroke-miterlimit:4;stroke-dasharray:none;stroke-opacity:1"
       d="m 72.725647,123.07545 c 10.203588,0 10.203588,0 10.203588,0"
       id="path6534" />
    <path
       style="fill:none;fill-rule:evenodd;stroke:#000000;stroke-width:1.5;stroke-linecap:butt;stroke-linejoin:miter;stroke-miterlimit:4;stroke-dasharray:none;stroke-opacity:1"
       d="m 72.738127,123.03123 c 10.420426,9.25876 10.420426,9.25876 10.420426,9.25876"
       id="path8462" />
    <path
       style="opacity:1;fill:#ffffff;fill-opacity:1;stroke:none;stroke-width:0.15407;stroke-linecap:round;stroke-linejoin:round;stroke-miterlimit:4;stroke-dasharray:none;stroke-opacity:1"
       id="path6528"
       sodipodi:type="arc"
       sodipodi:cx="72.760414"
       sodipodi:cy="123.03125"
       sodipodi:rx="2.1500001"
       sodipodi:ry="2.1499999"
       sodipodi:start="0"
       sodipodi:end="6.2241757"
       sodipodi:open="true"
       sodipodi:arc-type="arc"
       d="m 74.910414,123.03125 a 2.1500001,2.1499999 0 0 1 -2.118283,2.14977 2.1500001,2.1499999 0 0 1 -2.180781,-2.08634 2.1500001,2.1499999 0 0 1 2.053942,-2.21132 2.1500001,2.1499999 0 0 1 2.24138,2.02109" />
    <path
       style="opacity:1;fill:#000000;fill-opacity:1;stroke:none;stroke-width:0.245669;stroke-linecap:round;stroke-linejoin:round;stroke-miterlimit:4;stroke-dasharray:none;stroke-opacity:1"
       id="path6980"
       sodipodi:type="arc"
       sodipodi:cx="72.747932"
       sodipodi:cy="123.07547"
       sodipodi:rx="1.3229166"
       sodipodi:ry="1.3229166"
       sodipodi:start="0"
       sodipodi:end="6.2241757"
       sodipodi:open="true"
       sodipodi:arc-type="arc"
       d="m 74.070849,123.07547 a 1.3229166,1.3229166 0 0 1 -1.303401,1.32277 1.3229166,1.3229166 0 0 1 -1.341856,-1.28374 1.3229166,1.3229166 0 0 1 1.263811,-1.36065 1.3229166,1.3229166 0 0 1 1.379143,1.2436" />
    <path
       style="fill:none;fill-rule:evenodd;stroke:#000000;stroke-width:1.5;stroke-linecap:butt;stroke-linejoin:miter;stroke-miterlimit:4;stroke-dasharray:none;stroke-opacity:1"
       d="m 82.865213,123.33205 c 0,9.21397 0,9.21397 0,9.21397"
       id="path6536" />
    <path
       style="opacity:1;fill:#ffffff;fill-opacity:1;stroke:none;stroke-width:0.15407;stroke-linecap:round;stroke-linejoin:round;stroke-miterlimit:4;stroke-dasharray:none;stroke-opacity:1"
       id="path8460"
       sodipodi:type="arc"
       sodipodi:cx="82.865204"
       sodipodi:cy="132.36969"
       sodipodi:rx="2.1500001"
       sodipodi:ry="2.1500001"
       sodipodi:start="0"
       sodipodi:end="6.2241757"
       sodipodi:open="true"
       sodipodi:arc-type="arc"
       d="m 85.015204,132.36969 a 2.1500001,2.1500001 0 0 1 -2.118284,2.14977 2.1500001,2.1500001 0 0 1 -2.18078,-2.08634 2.1500001,2.1500001 0 0 1 2.053942,-2.21132 2.1500001,2.1500001 0 0 1 2.24138,2.02109" />
    <path
       style="opacity:1;fill:#000000;fill-opacity:1;stroke:none;stroke-width:0.245669;stroke-linecap:round;stroke-linejoin:round;stroke-miterlimit:4;stroke-dasharray:none;stroke-opacity:1"
       id="path6532"
       sodipodi:type="arc"
       sodipodi:cx="82.865204"
       sodipodi:cy="132.36969"
       sodipodi:rx="1.3229166"
       sodipodi:ry="1.3229166"
       sodipodi:start="0"
       sodipodi:end="6.2241757"
       sodipodi:open="true"
       sodipodi:arc-type="arc"
       d="m 84.18812,132.36969 a 1.3229166,1.3229166 0 0 1 -1.303401,1.32277 1.3229166,1.3229166 0 0 1 -1.341856,-1.28374 1.3229166,1.3229166 0 0 1 1.263811,-1.36065 1.3229166,1.3229166 0 0 1 1.379144,1.2436" />
    <path
       style="opacity:1;fill:#ffffff;fill-opacity:1;stroke:none;stroke-width:0.154054;stroke-linecap:round;stroke-linejoin:round;stroke-miterlimit:4;stroke-dasharray:none;stroke-opacity:1"
       id="path8386"
       sodipodi:type="arc"
       sodipodi:cx="82.865204"
       sodipodi:cy="123.03125"
       sodipodi:rx="2.1502175"
       sodipodi:ry="2.1502175"
       sodipodi:start="0"
       sodipodi:end="6.2241757"
       sodipodi:open="true"
       sodipodi:arc-type="arc"
       d="m 85.015421,123.03125 a 2.1502175,2.1502175 0 0 1 -2.118497,2.14998 2.1502175,2.1502175 0 0 1 -2.181002,-2.08655 2.1502175,2.1502175 0 0 1 2.05415,-2.21154 2.1502175,2.1502175 0 0 1 2.241607,2.0213" />
    <path
       style="opacity:1;fill:#000000;fill-opacity:1;stroke:none;stroke-width:0.245669;stroke-linecap:round;stroke-linejoin:round;stroke-miterlimit:4;stroke-dasharray:none;stroke-opacity:1"
       id="path6530"
       sodipodi:type="arc"
       sodipodi:cx="82.852722"
       sodipodi:cy="123.07547"
       sodipodi:rx="1.3229166"
       sodipodi:ry="1.3229166"
       sodipodi:start="0"
       sodipodi:end="6.2241757"
       sodipodi:open="true"
       sodipodi:arc-type="arc"
       d="m 84.175639,123.07547 a 1.3229166,1.3229166 0 0 1 -1.303401,1.32277 1.3229166,1.3229166 0 0 1 -1.341857,-1.28374 1.3229166,1.3229166 0 0 1 1.263812,-1.36065 1.3229166,1.3229166 0 0 1 1.379143,1.2436" />
  </g>
</svg>
